<svg width="21" height="18" viewBox="0 0 21 18" fill="none" xmlns="http://www.w3.org/2000/svg">
<path d="M7.25 18C8.07843 18 8.75 17.3284 8.75 16.5C8.75 15.6716 8.07843 15 7.25 15C6.42157 15 5.75 15.6716 5.75 16.5C5.75 17.3284 6.42157 18 7.25 18Z" fill="white"/>
<path d="M17.75 18C18.5784 18 19.25 17.3284 19.25 16.5C19.25 15.6716 18.5784 15 17.75 15C16.9216 15 16.25 15.6716 16.25 16.5C16.25 17.3284 16.9216 18 17.75 18Z" fill="white"/>
<path d="M6.86469 11.25H19.115L20.915 2.25H5.27609L4.87906 0H0.5V1.5H3.62094L5.87094 14.25H19.25V12.75H7.12906L6.86469 11.25Z" fill="white"/>
</svg>
