<svg width="113" height="113" viewBox="0 0 113 113" fill="none" xmlns="http://www.w3.org/2000/svg">
<rect width="113" height="113" fill="#0D1719"/>
<path fill-rule="evenodd" clip-rule="evenodd" d="M25.2667 14.278C21.3258 15.0701 16.7954 18.3617 14.213 22.3093C12.7927 24.4817 11.1253 28.8924 11.0131 30.7792C10.9597 31.6713 11.0467 31.827 11.7092 32.0104C12.4137 32.2062 12.54 32.0932 13.5814 30.3476C15.3189 27.431 17.2978 25.3946 19.403 24.3541C21.7861 23.1769 24.4499 22.9873 28.7838 23.687C34.9675 24.6856 38.9113 23.9569 45.4459 20.609L48.9377 18.8192L45.328 22.802C40.239 28.4138 38.479 30.6786 37.1878 33.2634C35.7647 36.1183 35.2426 38.6245 35.237 42.653C35.2342 44.409 35.136 45.7966 35.0209 45.7369C32.576 44.4769 30.1985 43.4831 29.028 43.2307C24.4752 42.2513 19.6388 44.5037 17.5729 48.5642C16.8094 50.0679 16.8262 50.1946 17.8452 50.5504C18.603 50.8158 18.836 50.753 19.8606 50.0073C23.344 47.4763 28.0765 48.0496 31.6862 51.4403C34.6616 54.233 35.7928 57.1093 35.7928 61.8803V64.6039L33.3367 63.3625C31.9866 62.6797 30.1312 61.987 29.2133 61.8231C25.0618 61.0806 21.4071 62.929 19.5153 66.7276L18.6564 68.4546L19.6641 68.9732L20.6718 69.4921L21.2163 68.7966C22.123 67.6397 24.1215 66.8265 25.5699 67.0256C29.1572 67.5189 31.4196 70.1679 31.4027 73.8561C31.3915 76.4037 30.3782 78.6932 27.8182 81.9527C25.2387 85.2408 18.4655 91.8183 14.3814 95.0039L13.5982 95.6135L14.5105 96.9104C15.1561 97.8307 15.5463 98.1518 15.8522 98.0152C18.3083 96.9222 24.2085 94.8631 26.6899 94.2335C30.9789 93.1454 33.7802 92.8056 38.4594 92.8056C45.7939 92.8056 51.7475 94.082 59.2308 97.2583L61.4764 98.2113L62.3184 97.2358C62.7816 96.6994 65.9983 93.0228 69.4621 89.0656L75.7665 81.8707L77.0044 84.0459C81.4843 91.9059 82.5986 93.6115 84.5129 95.5487C85.6048 96.6524 86.7501 97.6907 87.0561 97.8558C87.5529 98.122 88.3781 97.416 94.3344 91.6375C98.0312 88.0524 101.096 85.0169 101.15 84.8918C101.2 84.767 100.886 84.2445 100.448 83.731L99.6508 82.7972L97.2396 84.9924C94.4411 87.5389 93.8068 87.8617 92.5998 87.353C91.5079 86.8918 90.5001 85.482 86.4609 78.7563C79.1685 66.6135 75.8564 62.5915 70.2088 59.0051C68.8951 58.1713 67.8144 57.4132 67.806 57.3208C67.7976 57.2284 72.6564 53.6831 78.5987 49.4422C84.5438 45.2014 89.4055 41.6639 89.4055 41.5808C89.4055 41.4008 76.8135 26.6437 76.6591 26.6437C76.6002 26.6437 71.8452 30.3848 66.0938 34.9572C60.3423 39.5296 55.5958 43.2304 55.5481 43.1811C55.3712 43.0048 56.0477 37.7155 56.5923 34.9873C57.6842 29.5417 59.635 24.3938 62.7563 18.7282C63.6742 17.0611 64.4236 15.5744 64.4236 15.4237C64.4236 15.2732 63.9857 14.8913 63.4524 14.5749L62.4812 14L60.8308 17.0121C57.5691 22.9645 55.5509 28.2223 54.2176 34.2493C53.019 39.6625 52.8843 41.7839 52.9292 54.5093C52.9544 62.3386 52.8618 67.0408 52.6597 68.0521C51.3433 74.5986 48.1602 78.9065 42.1084 82.3375C40.4102 83.3003 36.4524 85.2375 33.3114 86.6428C30.1705 88.0479 26.8218 89.5862 25.873 90.0608C23.6078 91.1915 23.6808 91.122 32.5648 83.6803C40.1913 77.2935 42.7933 74.6825 44.354 71.8549C46.2795 68.3713 46.2655 68.489 46.4676 53.4042C46.6641 38.8572 46.7146 38.267 48.2949 31.9738C49.6899 26.4104 52.0057 20.76 54.4899 16.8603L55.4274 15.3868L54.4113 14.6935L53.3951 14L52.0478 14.6845C49.5412 15.9603 46.0802 16.7845 43.2368 16.7845C40.6656 16.7845 40.3204 16.7177 33.1683 14.8372C30.4905 14.133 27.1614 13.8975 25.2667 14.278ZM73.9055 40.4668C76.2661 43.2454 78.2619 45.6932 78.3433 45.9065C78.4443 46.1679 74.7869 48.9155 67.093 54.3561C60.8223 58.7901 55.6351 62.4183 55.5677 62.4183C55.4975 62.4183 55.4414 58.8761 55.4414 54.5465V46.6746L62.3886 41.0428C66.2089 37.9454 69.4004 35.4118 69.4761 35.4127C69.5547 35.4135 71.5477 37.6879 73.9055 40.4668ZM58.9501 65.5741C64.0475 66.6811 68.3533 70.3479 73.3862 77.8648C74.5763 79.6408 74.5792 79.6518 74.043 80.2591C68.4712 86.5687 66.8517 88.3338 66.6327 88.3338C66.4896 88.3338 65.6081 87.9468 64.6734 87.4735C62.3296 86.2853 57.687 84.7811 55.1607 84.3915C54.0042 84.2127 51.3236 83.9175 49.2043 83.7355L45.3504 83.4042L47.3378 81.8549C52.2387 78.0344 54.7425 73.3769 55.3348 66.9786L55.5228 64.9434L56.5361 65.1062C57.0919 65.1958 58.1782 65.4065 58.9501 65.5741Z" fill="white"/>
</svg>
