<svg width="560" height="100" viewBox="0 0 560 100" fill="none" xmlns="http://www.w3.org/2000/svg">
<path fill-rule="evenodd" clip-rule="evenodd" d="M14.2667 0.278059C10.3258 1.07017 5.79538 4.36172 3.21299 8.30933C1.79267 10.4817 0.125344 14.8924 0.0130662 16.7792C-0.0402658 17.6713 0.0467327 17.8271 0.709172 18.0105C1.41372 18.2062 1.54005 18.0933 2.58143 16.3476C4.31893 13.431 6.29781 11.3947 8.40302 10.3541C10.7861 9.17693 13.4499 8.98735 17.7838 9.68707C23.9675 10.6857 27.9113 9.95693 34.4459 6.60904L37.9377 4.81919L34.328 8.802C29.239 14.4138 27.479 16.6786 26.1878 19.2634C24.7647 22.1183 24.2426 24.6245 24.237 28.653C24.2342 30.409 24.136 31.7966 24.0209 31.7369C21.576 30.4769 19.1985 29.4831 18.028 29.2307C13.4752 28.2513 8.63879 30.5037 6.57288 34.5643C5.80939 36.0679 5.82624 36.1947 6.84516 36.5504C7.60303 36.8158 7.83603 36.753 8.86057 36.0074C12.344 33.4764 17.0765 34.0496 20.6862 37.4403C23.6616 40.233 24.7928 43.1093 24.7928 47.8803V50.604L22.3367 49.3626C20.9866 48.6797 19.1312 47.9871 18.2133 47.8231C14.0618 47.0806 10.4071 48.929 8.51526 52.7276L7.65638 54.4547L8.66407 54.9733L9.67176 55.4921L10.2163 54.7966C11.123 53.6397 13.1215 52.8265 14.5699 53.0257C18.1572 53.5189 20.4196 56.1679 20.4027 59.8561C20.3915 62.4037 19.3782 64.6933 16.8182 67.9527C14.2387 71.2409 7.46549 77.8183 3.38138 81.004L2.59824 81.6135L3.5105 82.9104C4.1561 83.8307 4.54628 84.1519 4.85224 84.0152C7.30832 82.9223 13.2085 80.8631 15.6899 80.2336C19.9789 79.1454 22.7802 78.8057 27.4594 78.8057C34.7939 78.8057 40.7475 80.082 48.2308 83.2583L50.4764 84.2113L51.3184 83.2358C51.7816 82.6995 54.9983 79.0228 58.4621 75.0657L64.7665 67.8707L66.0044 70.0459C70.4843 77.9059 71.5986 79.6116 73.5129 81.5488C74.6048 82.6524 75.7501 83.6907 76.0561 83.8558C76.5529 84.122 77.3781 83.4161 83.3344 77.6375C87.0312 74.0524 90.0964 71.0169 90.1497 70.8919C90.2003 70.7671 89.8859 70.2445 89.448 69.731L88.6508 68.7972L86.2396 70.9924C83.4411 73.5389 82.8068 73.8617 81.5998 73.353C80.5079 72.8919 79.5001 71.482 75.4609 64.7564C68.1685 52.6135 64.8564 48.5916 59.2088 45.0051C57.8951 44.1713 56.8144 43.4133 56.806 43.3209C56.7976 43.2285 61.6564 39.6831 67.5987 35.4423C73.5438 31.2014 78.4055 27.664 78.4055 27.5809C78.4055 27.4009 65.8135 12.6437 65.6591 12.6437C65.6002 12.6437 60.8452 16.3848 55.0938 20.9572C49.3423 25.5296 44.5958 29.2305 44.5481 29.1812C44.3712 29.0048 45.0477 23.7155 45.5923 20.9874C46.6842 15.5417 48.635 10.3938 51.7563 4.7282C52.6742 3.06116 53.4236 1.5744 53.4236 1.42369C53.4236 1.27327 52.9857 0.891298 52.4524 0.57496L51.4812 3.05176e-05L49.8308 3.01214C46.5691 8.96454 44.5509 14.2223 43.2176 20.2493C42.019 25.6626 41.8843 27.784 41.9292 40.5093C41.9544 48.3386 41.8618 53.0409 41.6597 54.0521C40.3433 60.5986 37.1602 64.9065 31.1084 68.3375C29.4102 69.3003 25.4524 71.2375 22.3114 72.6428C19.1705 74.0479 15.8218 75.5862 14.873 76.0609C12.6078 77.1916 12.6808 77.122 21.5648 69.6803C29.1913 63.2935 31.7933 60.6826 33.354 57.855C35.2795 54.3713 35.2655 54.489 35.4676 39.4043C35.6641 24.8572 35.7146 24.2671 37.2949 17.9738C38.6899 12.4105 41.0057 6.76003 43.4899 2.86031L44.4274 1.38679L43.4113 0.693549L42.3951 3.05176e-05L41.0478 0.684535C38.5412 1.96031 35.0802 2.78453 32.2368 2.78453C29.6656 2.78453 29.3204 2.71778 22.1683 0.837214C19.4905 0.132988 16.1614 -0.102505 14.2667 0.278059ZM263.243 4.96088C259.597 5.70876 256.408 7.3713 252.523 10.5502L251.625 11.284L249.716 9.74482C247.642 8.07383 246.135 7.22651 243.805 6.42257L242.306 5.90454L242.056 6.52764C241.854 7.03327 241.947 7.25693 242.547 7.71411C245.756 10.1499 246.881 11.9381 247.375 15.3671C247.544 16.5271 247.656 28.1417 247.659 44.6093L247.664 71.9271L245.534 74.0778L243.403 76.2285L247.85 79.8347C250.294 81.8181 252.501 83.6158 252.753 83.8299C253.216 84.2226 254.69 83.1383 261.371 77.4885L262.867 76.2234L260.879 74.2158L258.892 72.2079V56.8195V41.431L263.588 37.6006C266.17 35.4941 268.422 33.7705 268.593 33.7705C268.761 33.7705 269.665 34.4634 270.597 35.3102C273.572 38.013 273.348 36.1093 273.348 58.5592C273.348 73.2575 273.258 78.6586 272.986 80.2316C271.869 86.7124 266.794 91.5527 256.225 96.2169C254.219 97.1028 252.548 97.84 252.515 97.8555C252.358 97.9282 253.118 99.9676 253.303 99.9676C253.828 99.9676 261.315 96.7921 264.225 95.3352C276.276 89.3028 282.673 83.0795 284.365 75.7423C284.803 73.8547 284.854 71.7251 284.856 55.7423C284.856 39.529 284.809 37.6333 284.348 35.4874C283.767 32.7862 282.962 31.044 281.511 29.3575C280.11 27.7274 276.382 24.9533 275.944 25.2152C275.751 25.3305 271.995 28.2921 267.594 31.7964C263.195 35.3009 259.423 38.2727 259.209 38.4006C258.603 38.7685 258.934 16.5969 259.571 14.0766C260.38 10.8941 261.73 8.99214 264.992 6.44651C265.792 5.82285 265.856 5.6744 265.55 5.14989C265.216 4.57355 265.154 4.56848 263.243 4.96088ZM168.362 6.23524C168.163 6.7882 165.702 17.3986 165.702 17.7138C165.702 17.869 166.176 17.9938 166.754 17.9916L167.807 17.9874L171.526 12.1214C173.572 8.89552 175.245 6.17186 175.245 6.06961C175.245 5.96707 173.727 5.88313 171.868 5.88313C169.423 5.88313 168.455 5.98031 168.362 6.23524ZM300.365 21.4288C292.881 30.7017 292.575 31.1282 292.575 32.2848V33.4888H295.259H297.942L297.844 51.1648C297.726 71.5175 297.805 70.8406 295.34 73.2493C294.56 74.0124 293.979 74.8183 294.03 75.0699C294.08 75.3271 294.843 75.7944 295.806 76.1564C299.753 77.6437 303.02 79.6412 306.127 82.4657L308.022 84.189L313.701 79.6519C320.889 73.911 320.263 74.5434 319.626 73.6654C319.337 73.2682 318.997 72.9392 318.871 72.9341C318.742 72.9293 317.889 73.5048 316.971 74.2133L315.303 75.5012L312.289 73.2803L309.277 71.0597L309.204 52.2803L309.134 33.5006L314.677 33.4243L320.224 33.3479L320.305 30.3197L320.384 27.2916H314.748H309.114L309.333 21.024C309.664 11.5541 309.687 11.9544 308.856 11.8581C308.241 11.7868 307.191 12.971 300.365 21.4288ZM384.461 17.0305C383.347 17.9699 382.875 19.6288 383.327 21.0051C383.51 21.5555 384.273 22.6896 385.028 23.5251C386.713 25.3927 386.805 26.2434 385.486 27.7513C382.494 31.1705 376.913 30.7628 365.837 26.3158L362.677 25.0471L359.732 27.9386C356.538 31.0719 354.023 32.6203 349.557 34.2006L347.382 34.9702V45.3321V55.6938L349.136 56.6662C350.102 57.2012 352.819 58.6792 355.171 59.951L359.454 62.2634L355.466 67.524C351.177 73.1786 345.807 79.8569 345.021 80.5105C344.754 80.7316 344.35 81.28 344.117 81.729C343.741 82.4597 343.744 82.6172 344.14 83.224C344.959 84.482 345.779 84.4023 348.083 82.84C351.57 80.4752 352.757 80.1265 357.346 80.1169C361.95 80.1071 363.547 80.5014 367.898 82.7254L370.59 84.1012L372.95 82.1555C377.214 78.642 380.61 76.9361 384.995 76.104L387.521 75.6245L387.518 63.9228L387.512 52.2212L381.205 48.9817C377.736 47.2 374.898 45.6488 374.895 45.5347C374.892 45.4203 377.478 42.0369 380.638 38.0155C389.098 27.2586 390.098 25.5217 390.134 21.5096C390.174 17.5409 386.909 14.964 384.461 17.0305ZM62.9055 26.4668C65.2661 29.2454 67.2619 31.6933 67.3433 31.9065C67.4443 32.1679 63.7869 34.9155 56.093 40.3561C49.8223 44.7902 44.6351 48.4183 44.5677 48.4183C44.4975 48.4183 44.4414 44.8761 44.4414 40.5465V32.6747L51.3886 27.0428C55.2089 23.9454 58.4004 21.4119 58.4761 21.4127C58.5547 21.4135 60.5477 23.6879 62.9055 26.4668ZM100.37 29.8448C97.2429 32.4713 94.6885 34.7144 94.6914 34.8293C94.697 34.944 94.93 35.3386 95.2107 35.7062L95.7215 36.3744L97.2008 35.3541C99.2863 33.9138 100.14 34.0541 101.131 35.9995C102.138 37.982 102.262 40.2026 102.262 56.4397L102.265 72.2079L100.246 74.2485C99.1348 75.371 98.2815 76.3358 98.3516 76.393C98.419 76.4502 100.611 78.2305 103.222 80.349C107.368 83.7155 108.022 84.153 108.415 83.8189C108.659 83.6088 110.871 81.8028 113.324 79.8057L117.787 76.1741L115.64 74.1876L113.492 72.2011V56.8426V41.484L118.121 37.7682C120.664 35.7243 122.859 34.0521 122.994 34.0521C123.129 34.0521 124.257 35.1155 125.5 36.415L127.76 38.7778L127.883 56.3445C128.015 75.3961 128.066 76.0443 129.627 78.7155C130.289 79.8479 133.761 83.3428 134.744 83.864C135.156 84.0828 136.254 83.3012 140.84 79.5206C143.917 76.9851 146.55 74.7933 146.693 74.6496C146.853 74.4899 146.713 74.062 146.331 73.5437L145.708 72.6983L144.012 73.7978C143.08 74.4026 142.202 74.8972 142.061 74.8972C141.427 74.8972 140.672 74.22 140.088 73.1273C139.457 71.94 139.457 71.933 139.372 55.6014C139.283 38.5597 139.364 37.0127 140.478 34.8226C140.779 34.2316 141.924 32.7958 143.027 31.6321L145.028 29.5161L144.279 28.762L143.527 28.0076L140.846 30.6778L138.168 33.3479L135.869 30.8127C134.603 29.4183 132.874 27.5443 132.024 26.6479L130.474 25.0186L122.054 31.8251L113.633 38.6316L113.464 35.6707C113.259 32.1161 112.74 30.8451 110.604 28.6913C109.254 27.3282 106.436 25.0172 106.169 25.0538C106.107 25.0623 103.497 27.2183 100.37 29.8448ZM163.015 25.9665C162.409 26.4769 160.228 28.3181 158.168 30.0575L154.423 33.22L156.554 35.4169L158.684 37.6138L158.695 55.34C158.704 74.1144 158.816 76.0597 160.034 78.4507C160.77 79.8986 162.763 82.1152 164.363 83.2659L165.623 84.1702L171.206 79.6434C174.277 77.1538 176.938 74.9724 177.12 74.7958C177.376 74.5502 177.3 74.2845 176.803 73.6662L176.152 72.8575L174.597 74.0375C173.364 74.9713 172.845 75.1986 172.107 75.1276C171.304 75.0504 171.08 74.8457 170.473 73.6296L169.772 72.2212L169.685 54.9195L169.6 37.6178L171.784 35.413C173.94 33.2352 173.962 33.202 173.415 32.6862C172.539 31.8628 164.337 25.0381 164.222 25.0381C164.166 25.0381 163.622 25.4558 163.015 25.9665ZM208.788 25.6457C205.49 27.8634 194.79 32.1628 191.034 32.7792L189.841 32.975V53.1854V73.3961L196.3 78.0152C199.851 80.5558 202.725 82.7268 202.686 82.8395C202.647 82.9524 199.733 86.4155 196.21 90.5358L189.808 98.0268L190.13 99.0082C190.366 99.7245 190.579 99.9499 190.919 99.8431C191.175 99.7626 192.774 99.3845 194.473 99.0028C204.232 96.8102 211.688 96.9375 219.219 99.4254L220.948 99.9967L225.534 97.6919C230.91 94.9904 232.765 93.8583 234.424 92.2631C236.066 90.6851 236.818 89.1724 236.829 87.4285C236.841 85.6133 235.423 82.9099 232.235 78.6583C229.293 74.7383 228.091 72.3023 227.741 69.5451C227.592 68.3831 227.468 60.9361 227.463 52.9958C227.457 41.629 227.53 38.5595 227.805 38.5603C227.999 38.5609 230.115 38.9406 232.507 39.4043C234.901 39.8679 237.015 40.2476 237.208 40.2482C237.478 40.249 237.559 38.8507 237.559 34.193C237.559 30.2989 237.458 28.1367 237.276 28.1367C237.119 28.1367 234.828 29.2234 232.184 30.5519C228.973 32.1654 227.182 32.9169 226.783 32.8155C226.458 32.7321 222.553 30.9482 218.104 28.851C213.655 26.7538 209.931 25.0474 209.824 25.0586C209.717 25.0699 209.251 25.3341 208.788 25.6457ZM208.726 35.7423C212.74 37.1366 216.072 38.2775 216.125 38.2775C216.182 38.2775 216.224 44.7741 216.218 52.7141L216.21 67.1507L212.704 71.2941L209.198 75.4372L205.134 72.4654L201.069 69.4933V51.3502C201.069 41.3716 201.15 33.2071 201.246 33.2071C201.344 33.2071 204.71 34.3479 208.726 35.7423ZM360.089 34.8051C364.757 37.7659 370.595 38.9124 375.591 37.8502C376.672 37.6203 377.652 37.4324 377.77 37.4324C377.89 37.4324 375.33 40.9817 372.083 45.3197C368.838 49.6578 366.118 53.2071 366.039 53.2071C365.964 53.2071 364.26 52.3823 362.256 51.3741L358.609 49.5412V41.7966C358.609 37.5372 358.677 34.0521 358.755 34.0521C358.837 34.0521 359.435 34.391 360.089 34.8051ZM47.9501 51.5741C53.0475 52.6812 57.3533 56.3479 62.3862 63.8648C63.5763 65.6409 63.5792 65.6519 63.043 66.2592C57.4712 72.5688 55.8517 74.3338 55.6327 74.3338C55.4896 74.3338 54.6081 73.9468 53.6734 73.4735C51.3296 72.2854 46.687 70.7811 44.1607 70.3916C43.0042 70.2127 40.3236 69.9175 38.2043 69.7355L34.3504 69.4043L36.3378 67.8549C41.2387 64.0344 43.7425 59.3769 44.3348 52.9786L44.5228 50.9434L45.5361 51.1062C46.0919 51.1958 47.1782 51.4065 47.9501 51.5741ZM372.268 56.7662L376.293 58.9172V66.9307C376.293 71.3381 376.198 74.9009 376.083 74.8479C375.968 74.795 374.988 74.2952 373.907 73.7372C371.796 72.6468 369.245 71.7017 367.131 71.2262C364.785 70.6983 360.425 70.8657 357.557 71.5935C356.128 71.9561 354.96 72.1941 354.96 72.1226C354.96 71.9048 367.928 54.6155 368.091 54.6155C368.173 54.6155 370.053 55.5834 372.268 56.7662ZM216.754 73.464C218.001 78.4533 220.299 82.0274 226.104 88.0093L229.672 91.6848L228.479 92.3386L227.286 92.9924L225.896 92.2865C223.87 91.2564 220.083 89.9676 217.349 89.3766C214.262 88.7088 207.834 88.7076 203.214 89.3747C201.381 89.6389 199.848 89.8172 199.809 89.7707C199.767 89.724 203.407 85.4761 207.898 80.3307C212.389 75.1854 216.083 71.0023 216.111 71.035C216.14 71.0676 216.429 72.1609 216.754 73.464Z" fill="white"/>
<path d="M329.309 36.3325C329.309 36.3325 336.341 26.6433 336.375 23.0335C336.409 19.4023 331.162 18.5497 331.75 14.9663C332.267 11.8244 337.921 9.50468 341.805 11.0384C344.881 12.2529 346.553 16.7401 345.754 19.1312C343.802 24.9669 329.309 36.3325 329.309 36.3325Z" fill="white"/>
<path d="M412.134 81.9441C410.355 81.9441 408.983 81.3641 408.016 80.2041C407.088 79.0827 406.624 77.5941 406.624 75.7381C406.624 74.2687 406.875 72.8381 407.378 71.4461C407.455 71.1754 407.533 70.8467 407.61 70.4601C407.726 70.0347 407.842 69.5514 407.958 69.0101C408.113 68.0821 408.519 66.9994 409.176 65.7621C408.712 66.2261 408.229 66.6127 407.726 66.9221C407.262 67.1927 406.953 67.3281 406.798 67.3281C406.45 67.3281 406.141 67.2121 405.87 66.9801C405.599 66.7094 405.483 66.3421 405.522 65.8781C405.715 64.5247 406.199 63.6354 406.972 63.2101C407.784 62.7461 408.847 62.3207 410.162 61.9341C410.239 61.8954 410.375 61.8567 410.568 61.8181C410.761 61.7794 411.013 61.7407 411.322 61.7021C411.631 61.6247 411.883 61.5474 412.076 61.4701C412.308 61.3927 412.463 61.3347 412.54 61.2961C414.976 57.0814 417.76 53.5821 420.892 50.7981C424.024 47.9367 427.311 45.8101 430.752 44.4181C434.232 42.9874 437.673 42.2721 441.076 42.2721C442.275 42.2721 443.357 42.5621 444.324 43.1421C445.329 43.7221 445.832 44.4954 445.832 45.4621C445.832 45.8101 445.793 46.1001 445.716 46.3321C445.252 47.7627 444.807 48.8647 444.382 49.6381C443.995 50.3727 443.454 51.0881 442.758 51.7841C442.333 52.2094 441.849 52.4221 441.308 52.4221C440.844 52.4221 440.612 52.1901 440.612 51.7261C440.612 51.3781 440.747 50.9527 441.018 50.4501C441.095 50.3727 441.211 50.2761 441.366 50.1601C441.521 50.0054 441.695 49.8507 441.888 49.6961C442.623 49.0774 443.183 48.5167 443.57 48.0141C443.995 47.5114 444.343 46.8734 444.614 46.1001C444.885 45.2881 444.575 44.7274 443.686 44.4181C442.797 44.1087 441.753 43.9541 440.554 43.9541C437.693 43.9541 434.735 44.6501 431.68 46.0421C428.664 47.4341 425.687 49.4061 422.748 51.9581C419.848 54.5101 417.161 57.5261 414.686 61.0061C415.537 60.5807 416.349 60.2134 417.122 59.9041C417.934 59.5561 418.727 59.2467 419.5 58.9761C419.732 58.8987 420.08 58.7827 420.544 58.6281C421.047 58.4734 421.665 58.3187 422.4 58.1641L424.14 57.7581C426.035 57.3327 427.794 57.0041 429.418 56.7721C431.081 56.5014 432.589 56.3661 433.942 56.3661C436.417 56.3661 438.195 56.7334 439.278 57.4681C439.626 57.7001 439.626 57.9127 439.278 58.1061C439.046 58.1834 438.872 58.2221 438.756 58.2221C438.563 58.2221 438.35 58.1641 438.118 58.0481C437.383 57.5841 436.32 57.3521 434.928 57.3521C432.608 57.3521 428.973 58.0481 424.024 59.4401C422.98 59.7107 421.762 60.1554 420.37 60.7741C419.017 61.3541 417.663 61.9921 416.31 62.6881C414.995 63.3841 413.835 64.0414 412.83 64.6601C412.057 65.9361 411.457 67.0381 411.032 67.9661C410.607 68.8941 410.181 70.0541 409.756 71.4461C409.292 72.8381 409.06 74.1334 409.06 75.3321C409.06 76.8401 409.408 78.0387 410.104 78.9281C410.839 79.8174 411.902 80.2621 413.294 80.2621C415.421 80.2621 417.934 79.8174 420.834 78.9281C423.695 78.0001 426.421 76.8207 429.012 75.3901C431.641 73.9207 433.691 72.4514 435.16 70.9821C435.624 70.5181 435.991 70.3827 436.262 70.5761L436.32 70.7501C436.32 70.9434 436.165 71.1947 435.856 71.5041C434.309 73.0507 432.086 74.6554 429.186 76.3181C427.291 77.4007 425.319 78.3674 423.27 79.2181C421.221 80.0687 419.229 80.7261 417.296 81.1901C415.401 81.6927 413.681 81.9441 412.134 81.9441ZM437.818 94.5301C437.354 94.5301 436.91 94.2401 436.484 93.6601C436.407 93.5827 436.368 93.3507 436.368 92.9641C436.368 92.4227 436.484 91.6881 436.716 90.7601C436.948 89.8321 437.219 88.8847 437.528 87.9181C437.838 86.9901 438.108 86.2554 438.34 85.7141C438.843 84.7087 439.346 83.5874 439.848 82.3501C440.39 81.1127 440.931 79.7594 441.472 78.2901L443.734 72.8961L440.776 75.7381L439.152 77.3041C438.031 78.4254 437.103 78.9861 436.368 78.9861C436.059 78.9861 435.808 78.8701 435.614 78.6381C435.266 78.2127 435.092 77.6907 435.092 77.0721C435.092 76.2601 435.305 75.3901 435.73 74.4621C436.156 73.5341 436.658 72.6447 437.238 71.7941C437.818 70.9047 438.34 70.1701 438.804 69.5901C439.964 68.1594 441.086 67.0381 442.168 66.2261C443.29 65.4141 444.45 65.0081 445.648 65.0081C446.886 65.0081 448.123 65.5107 449.36 66.5161L449.418 66.5741C449.418 66.6901 449.322 66.8061 449.128 66.9221C449.051 66.9994 448.974 67.0574 448.896 67.0961C448.858 67.1347 448.819 67.1734 448.78 67.2121C448.123 67.8694 447.504 68.7587 446.924 69.8801C446.344 70.9627 445.726 72.2774 445.068 73.8241L444.372 75.3321C445.803 75.1774 446.518 75.9894 446.518 77.7681C446.518 78.5801 446.364 79.5661 446.054 80.7261C445.745 81.8861 445.32 83.0847 444.778 84.3221C444.276 85.5981 443.734 86.8161 443.154 87.9761C442.613 89.1361 442.072 90.1221 441.53 90.9341C441.298 91.3981 440.873 92.0167 440.254 92.7901C439.674 93.5634 439.075 94.0854 438.456 94.3561C438.224 94.4721 438.012 94.5301 437.818 94.5301ZM437.528 76.4341C438.379 76.4341 440.1 75.0421 442.69 72.2581C443.27 71.6007 443.792 70.9821 444.256 70.4021C444.72 69.7834 445.146 69.1841 445.532 68.6041C446.228 67.4827 446.46 66.7094 446.228 66.2841C446.112 66.0521 445.919 65.9361 445.648 65.9361C445.262 65.9361 444.72 66.1874 444.024 66.6901C443.328 67.1927 442.594 67.8307 441.82 68.6041C441.047 69.3387 440.293 70.1314 439.558 70.9821C438.862 71.7554 438.263 72.6254 437.76 73.5921C437.296 74.5201 437.064 75.2547 437.064 75.7961C437.064 76.2214 437.219 76.4341 437.528 76.4341ZM438.456 92.4421C439.307 92.4034 440.254 91.5141 441.298 89.7741C441.994 88.6141 442.613 87.3187 443.154 85.8881C443.734 84.4574 444.179 83.0654 444.488 81.7121C444.836 80.3587 445.01 79.2181 445.01 78.2901C445.01 76.8594 444.624 76.2407 443.85 76.4341C442.922 78.4834 442.014 80.5714 441.124 82.6981C440.274 84.8247 439.558 86.7001 438.978 88.3241C438.398 89.9867 438.108 91.1661 438.108 91.8621C438.108 92.2487 438.224 92.4421 438.456 92.4421ZM459.992 79.6821C458.987 79.6821 458.484 78.9474 458.484 77.4781C458.484 75.9701 459.006 73.7467 460.05 70.8081C458.813 72.3934 457.575 73.8047 456.338 75.0421C455.139 76.2407 453.941 77.2267 452.742 78.0001C451.891 78.6187 451.118 78.9281 450.422 78.9281C449.494 78.9281 449.03 78.2901 449.03 77.0141C449.03 76.3181 449.146 75.6801 449.378 75.1001C449.687 74.2494 450.132 73.2634 450.712 72.1421C451.331 71.0207 452.046 69.8994 452.858 68.7781C453.67 67.6567 454.501 66.7094 455.352 65.9361C455.661 65.7427 455.855 65.6461 455.932 65.6461C456.203 65.6461 456.338 65.8007 456.338 66.1101C456.338 66.2261 456.28 66.3807 456.164 66.5741C455.816 66.9607 455.41 67.5214 454.946 68.2561C454.482 68.9907 454.037 69.7834 453.612 70.6341C453.187 71.4847 452.819 72.2774 452.51 73.0121C452.239 73.7081 452.104 74.2301 452.104 74.5781C452.104 75.2741 452.413 75.6221 453.032 75.6221C453.303 75.6221 453.593 75.5254 453.902 75.3321C455.333 74.4427 456.647 73.3794 457.846 72.1421C459.045 70.8661 460.166 69.1454 461.21 66.9801C461.558 66.7481 461.945 66.6321 462.37 66.6321C462.795 66.6321 463.143 66.7674 463.414 67.0381C463.723 67.3087 463.878 67.6761 463.878 68.1401C463.878 68.4881 463.781 68.8941 463.588 69.3581C463.549 69.5127 463.472 69.6674 463.356 69.8221C463.279 69.9767 463.182 70.1507 463.066 70.3441C462.95 70.5374 462.853 70.7307 462.776 70.9241C462.699 71.0787 462.621 71.2141 462.544 71.3301C461.809 72.6447 461.229 73.7467 460.804 74.6361C460.417 75.5254 460.224 76.2987 460.224 76.9561C460.224 77.7294 460.572 78.1161 461.268 78.1161C461.887 78.1161 462.505 77.8841 463.124 77.4201C463.511 77.1494 463.839 77.0141 464.11 77.0141C464.535 77.0141 464.439 77.2847 463.82 77.8261C463.24 78.3287 462.525 78.7927 461.674 79.2181C460.862 79.5274 460.301 79.6821 459.992 79.6821ZM471.491 65.2981C470.988 65.2981 470.737 65.1821 470.737 64.9501C470.737 64.7567 470.872 64.4861 471.143 64.1381C471.452 63.7514 471.8 63.4227 472.187 63.1521C473.037 62.6107 473.695 62.1467 474.159 61.7601C474.661 61.3734 475.261 60.7161 475.957 59.7881C475.995 59.8654 476.015 60.0201 476.015 60.2521C476.015 60.7547 475.802 61.3734 475.377 62.1081C474.99 62.8041 474.545 63.4421 474.043 64.0221C473.54 64.6021 473.095 64.9694 472.709 65.1241C472.361 65.2401 471.955 65.2981 471.491 65.2981ZM466.329 79.5081C466.019 79.5081 465.729 79.3921 465.459 79.1601C465.188 78.9281 465.053 78.6187 465.053 78.2321C465.053 77.4201 465.613 75.9314 466.735 73.7661L467.373 72.4901C467.45 72.4127 467.547 72.2194 467.663 71.9101C467.817 71.6007 468.03 71.1947 468.301 70.6921C468.571 70.1507 468.784 69.6674 468.939 69.2421C469.093 68.8167 469.209 68.4107 469.287 68.0241C469.287 67.9854 469.364 67.9081 469.519 67.7921C469.673 67.6761 469.828 67.5794 469.983 67.5021L470.331 67.4441C470.64 67.4441 470.891 67.5021 471.085 67.6181C471.317 67.7341 471.394 67.8887 471.317 68.0821C471.046 68.6621 470.814 69.1647 470.621 69.5901C470.427 70.0154 470.273 70.3827 470.157 70.6921H470.099C469.673 71.6587 469.306 72.5867 468.997 73.4761C468.726 74.3267 468.61 75.1387 468.649 75.9121L468.707 77.4781C468.668 77.8647 468.533 78.1934 468.301 78.4641C468.146 78.5801 467.933 78.7154 467.663 78.8701C467.392 79.0634 467.044 79.2567 466.619 79.4501C466.58 79.4887 466.483 79.5081 466.329 79.5081ZM463.334 94.7621C462.948 94.7621 462.677 94.7234 462.522 94.6461C462.406 94.5301 462.29 94.3947 462.174 94.2401C462.058 94.0854 462 93.9501 462 93.8341C462.078 92.1714 462.6 90.2767 463.566 88.1501C464.533 86.0234 465.809 83.8001 467.394 81.4801C468.941 79.1601 470.604 76.9367 472.382 74.8101C473.968 72.8767 475.07 71.4267 475.688 70.4601C476.191 69.6094 476.771 68.3721 477.428 66.7481C478.124 65.0854 478.898 63.0554 479.748 60.6581C479.826 60.4261 480.116 60.2714 480.618 60.1941C481.237 60.1941 481.546 60.6581 481.546 61.5861C481.546 62.0887 481.488 62.4561 481.372 62.6881C481.334 62.8814 481.276 63.0747 481.198 63.2681C481.16 63.4227 481.121 63.5387 481.082 63.6161C480.966 63.8481 480.908 64.0027 480.908 64.0801C480.908 64.0801 480.928 64.1381 480.966 64.2541C481.005 64.3701 481.044 64.5247 481.082 64.7181C482.358 64.0994 483.48 63.6161 484.446 63.2681C485.413 62.8814 486.341 62.6881 487.23 62.6881C488.274 62.6881 488.99 63.0361 489.376 63.7321C489.492 63.9641 489.55 64.2541 489.55 64.6021C489.55 65.4527 489.222 66.5354 488.564 67.8501C487.907 69.1261 487.056 70.4601 486.012 71.8521C485.007 73.2054 483.905 74.4234 482.706 75.5061C482.281 75.8927 481.662 76.3181 480.85 76.7821C480.077 77.2461 479.226 77.6714 478.298 78.0581C477.409 78.4834 476.539 78.8314 475.688 79.1021C474.876 79.3727 474.238 79.5081 473.774 79.5081C473.272 80.5521 472.769 81.5574 472.266 82.5241C471.764 83.5294 471.242 84.4961 470.7 85.4241C468.226 89.8321 466.022 92.9061 464.088 94.6461C464.011 94.7234 463.76 94.7621 463.334 94.7621ZM474.992 77.0141C476.81 76.7047 478.743 75.9121 480.792 74.6361C482.842 73.3601 484.543 71.8327 485.896 70.0541C487.25 68.2754 487.868 66.4967 487.752 64.7181C487.52 64.0221 487.037 63.6741 486.302 63.6741C485.8 63.6741 485.162 63.8481 484.388 64.1961C483.654 64.5441 482.9 64.9887 482.126 65.5301C481.353 66.0714 480.657 66.6127 480.038 67.1541C479.458 67.6954 479.052 68.1594 478.82 68.5461C478.627 68.8167 478.395 69.3001 478.124 69.9961C477.97 70.3054 477.854 70.5761 477.776 70.8081C477.699 71.0401 477.641 71.1947 477.602 71.2721C477.409 71.7747 477.177 72.3354 476.906 72.9541C476.636 73.5341 476.346 74.1527 476.036 74.8101L474.992 77.0141ZM464.03 91.3401C464.03 91.4947 464.069 91.5721 464.146 91.5721C464.34 91.5721 464.688 91.2821 465.19 90.7021C466.002 89.8514 466.621 89.0781 467.046 88.3821C467.82 87.1447 468.554 85.9074 469.25 84.6701C469.908 83.4327 470.546 82.1954 471.164 80.9581C472.44 78.4834 472.982 76.9754 472.788 76.4341C472.208 77.0141 471.532 77.8454 470.758 78.9281C469.946 80.0494 469.134 81.2867 468.322 82.6401C467.472 83.9934 466.698 85.3274 466.002 86.6421C465.268 87.9954 464.707 89.1941 464.32 90.2381C464.127 90.8954 464.03 91.2627 464.03 91.3401ZM486.853 79.9141C486.582 79.9141 486.446 79.6821 486.446 79.2181C486.446 78.8314 486.524 78.3674 486.679 77.8261C486.872 77.2847 487.085 76.7821 487.317 76.3181C487.665 75.6607 488.187 74.5007 488.883 72.8381C489.695 71.0207 490.371 69.5707 490.913 68.4881C491.454 67.3667 491.976 66.5161 492.479 65.9361C493.02 65.2787 493.445 64.9501 493.755 64.9501C493.948 64.9501 494.103 65.0854 494.218 65.3561C494.335 65.5881 494.393 65.8587 494.393 66.1681C494.393 66.4774 494.354 66.6707 494.277 66.7481C493.967 67.0574 493.561 67.5794 493.059 68.3141C492.556 69.0487 492.092 69.7834 491.667 70.5181C490.855 72.0261 490.449 73.1474 490.449 73.8821C490.449 73.9594 490.449 74.0367 490.449 74.1141C490.487 74.1914 490.526 74.2687 490.565 74.3461C491.029 74.1141 491.454 73.8821 491.841 73.6501C492.227 73.4181 492.672 73.0894 493.175 72.6641L496.713 69.4161C497.099 69.0681 497.447 68.7781 497.757 68.5461C498.066 68.3141 498.317 68.1207 498.511 67.9661C498.897 67.6954 499.265 67.5601 499.613 67.5601C499.922 67.5601 500.289 67.7534 500.715 68.1401C500.908 68.3334 501.005 68.8554 501.005 69.7061V71.1561C501.005 71.3107 500.985 71.4654 500.947 71.6201C500.947 71.7361 500.947 71.8714 500.947 72.0261C500.947 72.5287 501.005 72.9734 501.121 73.3601C501.275 73.7081 501.488 73.8821 501.759 73.8821C501.875 73.8821 502.029 73.7854 502.223 73.5921L503.847 71.6781C505.2 70.0927 506.244 68.9327 506.979 68.1981C507.713 67.4634 508.545 66.9607 509.473 66.6901C509.589 66.6514 509.685 66.6321 509.763 66.6321C509.879 66.5934 509.975 66.5741 510.053 66.5741C510.401 66.5741 510.691 66.6901 510.923 66.9221C511.193 67.1541 511.271 67.4634 511.155 67.8501C511 68.4687 510.787 69.1841 510.517 69.9961C510.285 70.7694 510.072 71.3881 509.879 71.8521C509.415 72.7801 509.183 73.5147 509.183 74.0561C509.183 74.4041 509.318 74.6361 509.589 74.7521C509.898 74.8681 510.188 74.9454 510.459 74.9841C510.768 75.0227 510.923 75.1001 510.923 75.2161C511.696 74.9454 512.276 74.8101 512.663 74.8101C513.049 74.8101 513.146 74.9454 512.953 75.2161C512.759 75.4481 512.411 75.7381 511.909 76.0861C511.406 76.4341 510.845 76.7434 510.227 77.0141C509.647 77.2461 509.125 77.3621 508.661 77.3621C507.694 77.3621 507.211 76.8401 507.211 75.7961C507.211 75.2547 507.288 74.7521 507.443 74.2881C507.984 72.3161 508.255 71.0401 508.255 70.4601C508.255 69.8801 508.1 69.5901 507.791 69.5901C507.095 69.5901 505.606 70.9821 503.325 73.7661C503.093 74.0367 502.822 74.3267 502.513 74.6361C502.242 74.9454 501.933 75.2547 501.585 75.5641C501.121 75.9894 500.676 76.4341 500.251 76.8981C500.019 77.1301 499.709 77.2461 499.323 77.2461C498.511 77.2461 498.066 76.9561 497.989 76.3761C497.95 75.7574 497.911 75.2547 497.873 74.8681C497.873 74.4427 497.873 74.1527 497.873 73.9981C497.795 72.9927 497.737 72.3161 497.699 71.9681C497.66 71.6201 497.486 71.4461 497.177 71.4461C496.79 71.4461 495.823 72.0647 494.277 73.3021C492.189 74.9647 490.275 76.8207 488.535 78.8701C487.8 79.5661 487.239 79.9141 486.853 79.9141ZM516.571 78.6381C515.759 78.6381 515.043 78.4254 514.425 78.0001C513.419 77.2267 512.917 76.0667 512.917 74.5201C512.917 72.9734 513.458 71.3301 514.541 69.5901C515.623 67.8501 517.267 66.2454 519.471 64.7761C519.857 64.5054 520.379 64.3701 521.037 64.3701C521.887 64.3701 522.641 64.6021 523.299 65.0661C523.995 65.5301 524.265 66.1294 524.111 66.8641C523.84 68.0627 523.241 69.1261 522.313 70.0541C521.423 70.9821 520.36 71.8134 519.123 72.5481C517.924 73.2441 516.687 73.9207 515.411 74.5781C515.372 74.6941 515.333 74.8101 515.295 74.9261C515.295 75.0421 515.295 75.1581 515.295 75.2741C515.295 75.8154 515.469 76.2987 515.817 76.7241C516.203 77.1107 516.725 77.3041 517.383 77.3041C517.885 77.3041 518.311 77.2267 518.659 77.0721C519.277 76.8401 519.78 76.6274 520.167 76.4341C520.592 76.2407 521.075 75.9507 521.617 75.5641C522.158 75.1774 522.893 74.5974 523.821 73.8241C524.246 73.5147 524.497 73.3601 524.575 73.3601C524.807 73.3601 524.884 73.5341 524.807 73.8821C524.42 74.5007 523.743 75.1774 522.777 75.9121C521.849 76.6467 520.805 77.2847 519.645 77.8261C518.523 78.3674 517.499 78.6381 516.571 78.6381ZM515.759 73.0121C516.068 73.0121 516.706 72.7027 517.673 72.0841C518.639 71.4654 519.548 70.7887 520.399 70.0541C521.868 68.7007 522.603 67.6567 522.603 66.9221C522.603 66.7287 522.545 66.5547 522.429 66.4001C522.313 66.2067 522.139 66.1101 521.907 66.1101C521.172 66.1101 519.935 66.9801 518.195 68.7201C516.996 69.8801 516.184 71.3107 515.759 73.0121ZM525.053 78.9281C524.357 78.9281 524.009 78.6574 524.009 78.1161C524.009 77.7681 524.125 77.3234 524.357 76.7821C524.627 76.2407 524.898 75.7187 525.169 75.2161C525.903 73.9014 526.58 72.6254 527.199 71.3881C527.817 70.1507 528.417 68.8361 528.997 67.4441C529.267 66.8254 529.673 66.5161 530.215 66.5161C530.795 66.5161 530.969 66.8641 530.737 67.5601C530.505 68.1401 530.273 68.6621 530.041 69.1261C528.958 71.3301 528.417 72.8187 528.417 73.5921C528.417 73.9401 528.533 74.1527 528.765 74.2301C529.306 73.8047 529.712 73.4954 529.983 73.3021C530.253 73.0701 530.408 72.9347 530.447 72.8961C530.988 72.4707 531.587 71.9874 532.245 71.4461C532.941 70.8661 533.695 70.2087 534.507 69.4741C535.783 68.3141 536.846 67.7341 537.697 67.7341C538.741 67.7341 539.185 68.6814 539.031 70.5761C538.992 71.3107 538.992 72.0261 539.031 72.7221C539.069 72.8767 539.089 73.1087 539.089 73.4181C539.089 73.6887 539.089 74.0174 539.089 74.4041C539.089 74.7907 539.321 74.9841 539.785 74.9841C540.326 74.9841 540.829 74.8294 541.293 74.5201L542.569 73.6501L543.845 72.8381C543.922 72.7994 544.057 72.7801 544.251 72.7801C544.483 72.7801 544.483 72.9541 544.251 73.3021C541.815 76.3181 539.804 77.8261 538.219 77.8261C537.909 77.8261 537.6 77.7681 537.291 77.6521C537.02 77.5361 536.827 77.2074 536.711 76.6661C536.595 76.0861 536.517 75.4674 536.479 74.8101C536.479 74.1527 536.479 73.6501 536.479 73.3021L536.537 71.3881C536.537 70.5761 536.324 70.1701 535.899 70.1701C534.893 70.1701 532.419 72.2387 528.475 76.3761C528.165 76.7627 527.682 77.2847 527.025 77.9421C526.367 78.5994 525.71 78.9281 525.053 78.9281ZM544.94 83.3941C544.747 83.3941 544.65 83.2201 544.65 82.8721C544.65 82.7947 544.65 82.6787 544.65 82.5241C544.689 82.4081 544.728 82.2727 544.766 82.1181L547.26 75.8541L550.218 68.5461C549.754 68.5074 549.078 68.5267 548.188 68.6041C547.299 68.6427 546.545 68.7201 545.926 68.8361C545.694 68.8747 545.501 68.9134 545.346 68.9521C545.23 68.9521 545.134 68.9521 545.056 68.9521C544.747 68.9521 544.534 68.8167 544.418 68.5461C544.457 68.3141 544.67 68.1014 545.056 67.9081C545.25 67.8307 545.482 67.7727 545.752 67.7341C546.023 67.6567 546.352 67.5794 546.738 67.5021C547.164 67.4247 547.531 67.3667 547.84 67.3281C548.188 67.2894 548.44 67.2507 548.594 67.2121C548.788 67.1734 548.981 67.1347 549.174 67.0961C549.368 67.0574 549.6 67.0187 549.87 66.9801C550.102 66.9414 550.354 66.9027 550.624 66.8641C550.895 66.8254 551.185 66.7674 551.494 66.6901C551.804 66.2647 552.268 65.5107 552.886 64.4281C553.505 63.3454 554.298 61.9147 555.264 60.1361C556.038 58.7054 556.656 57.5841 557.12 56.7721C557.623 55.9214 557.971 55.3607 558.164 55.0901C558.512 54.6261 558.918 54.3941 559.382 54.3941C559.614 54.3941 559.73 54.4907 559.73 54.6841C559.73 54.7227 559.634 54.9741 559.44 55.4381C559.208 55.8247 558.822 56.5401 558.28 57.5841C557.739 58.6281 557.159 59.7687 556.54 61.0061C555.922 62.2434 555.361 63.4034 554.858 64.4861C554.356 65.5687 554.008 66.3614 553.814 66.8641C554.008 66.8254 554.22 66.8061 554.452 66.8061C554.723 66.8061 555.052 66.8061 555.438 66.8061C555.864 66.8061 556.25 66.8254 556.598 66.8641C556.985 66.8641 557.314 66.8834 557.584 66.9221C558.126 67.0381 558.396 67.1927 558.396 67.3861C558.396 67.4634 558.222 67.5987 557.874 67.7921C557.681 67.8694 557.314 67.9467 556.772 68.0241C556.231 68.1014 555.516 68.1787 554.626 68.2561C554.394 68.2561 554.143 68.2754 553.872 68.3141C553.602 68.3141 553.312 68.3334 553.002 68.3721C551.842 70.2667 550.257 73.4181 548.246 77.8261C547.512 79.2954 546.951 80.4361 546.564 81.2481C546.178 82.0601 545.946 82.5434 545.868 82.6981C545.52 83.1621 545.211 83.3941 544.94 83.3941Z" fill="white"/>
</svg>
